PathFileType  4	(X/Y/Z) H:\Shared drives\HIT\Data\HapticPilot\Subject1\Edited\Files_W_HJCs
DataRate	CameraRate	NumFrames	NumMarkers	Units	OrigDataRate	OrigDataStartFrame	OrigNumFrames
   50.0		   50.0		    7		     56		 mm	   50.0	      199	    227
Frame#	Time	r_knee			r_shank_antsup			r_ankle			r_calc			r_5meta			r_toe			L_knee			L_shank_antsup			L_ankle			L_calc			L_5meta			L_toe			r_mknee			r_mankle			L_mknee			L_mankle			r_sh2			r_sh3			r_sh4			L_sh2			L_sh3			r_thigh1			r_thigh2			r_thigh3			r_thigh4			r_thigh5			L_thigh1			L_thigh2			L_thigh3			L_thigh4			r.ASIS			r.PSIS			L.ASIS			L.PSIS			C7			R_Shoulder			L_Shoulder			Sternum			R_HJC			L_HJC			R_HJC_reg			L_HJC_reg			midPSIS			midASIS			midHJC			midPelvis			R_KJC			L_KJC			R_AJC			L_AJC			R_AJC_proj			R_5meta_proj			R_toe_proj			L_AJC_proj			L_5meta_proj			L_toe_proj			
		X1	Y1	Z1	X2	Y2	Z2	X3	Y3	Z3	X4	Y4	Z4	X5	Y5	Z5	X6	Y6	Z6	X7	Y7	Z7	X8	Y8	Z8	X9	Y9	Z9	X10	Y10	Z10	X11	Y11	Z11	X12	Y12	Z12	X13	Y13	Z13	X14	Y14	Z14	X15	Y15	Z15	X16	Y16	Z16	X17	Y17	Z17	X18	Y18	Z18	X19	Y19	Z19	X20	Y20	Z20	X21	Y21	Z21	X22	Y22	Z22	X23	Y23	Z23	X24	Y24	Z24	X25	Y25	Z25	X26	Y26	Z26	X27	Y27	Z27	X28	Y28	Z28	X29	Y29	Z29	X30	Y30	Z30	X31	Y31	Z31	X32	Y32	Z32	X33	Y33	Z33	X34	Y34	Z34	X35	Y35	Z35	X36	Y36	Z36	X37	Y37	Z37	X38	Y38	Z38	X39	Y39	Z39	X40	Y40	Z40	X41	Y41	Z41	X42	Y42	Z42	X43	Y43	Z43	X44	Y44	Z44	X45	Y45	Z45	X46	Y46	Z46	X47	Y47	Z47	X48	Y48	Z48	X49	Y49	Z49	X50	Y50	Z50	X51	Y51	Z51	X52	Y52	Z52	X53	Y53	Z53	X54	Y54	Z54	X55	Y55	Z55	X56	Y56	Z56	

199	3.96000	777.702	575.431	-409.627	790.726	490.951	-404.645	735.275	114.391	-409.182	646.559	71.567	-452.136	847.147	39.317	-382.246	886.273	73.359	-445.098	771.841	572.813	-732.841	795.808	456.017	-733.812	705.923	113.826	-731.837	630.069	73.935	-681.183	821.139	42.466	-777.841	868.443	70.712	-721.351	775.117	554.100	-534.900	747.352	120.726	-505.493	789.080	561.784	-610.217	737.411	120.804	-642.083	786.181	370.823	-401.451	715.669	491.433	-392.650	704.190	375.692	-386.373	708.296	476.669	-752.635	695.108	354.827	-753.706	849.937	897.216	-395.185	847.783	782.214	-395.275	802.350	749.802	-382.309	736.921	892.514	-385.401	741.624	775.254	-394.452	864.354	838.612	-752.477	863.946	700.487	-743.265	749.231	838.515	-772.614	751.916	704.374	-752.790	874.598	1093.432	-446.565	686.112	1127.171	-540.718	884.972	1095.336	-704.304	694.752	1126.119	-623.263	739.229	1609.386	-584.750	781.206	1580.767	-419.768	805.815	1575.846	-760.824	878.215	1532.002	-577.539	804.847	1005.421	-459.458	813.752	1007.261	-695.648	799.981	1018.307	-489.881	817.702	1016.150	-659.192	690.432	1126.645	-581.990	879.785	1094.384	-575.434	809.299	1006.341	-577.553	785.109	1110.514	-578.712	776.410	564.765	-472.263	780.460	567.299	-671.529	741.313	117.559	-457.338	721.667	117.315	-686.960	741.313	0.000	-457.338	847.147	0.000	-382.246	886.273	0.000	-445.098	721.667	0.000	-686.960	821.139	0.000	-777.841	868.443	0.000	-721.351
200	3.98000	777.760	575.434	-409.618	790.811	490.942	-404.645	735.283	114.370	-409.189	646.563	71.561	-452.127	847.142	39.315	-382.262	886.275	73.374	-445.091	771.890	572.786	-732.845	795.860	456.028	-733.823	705.917	113.788	-731.830	630.279	73.881	-680.910	821.135	42.450	-777.796	868.435	70.786	-721.193	775.155	554.086	-534.893	747.344	120.695	-505.489	789.112	561.751	-610.233	737.402	120.825	-642.106	786.280	370.863	-401.469	715.760	491.446	-392.655	704.214	375.644	-386.366	708.418	476.667	-752.665	695.204	354.774	-753.734	850.014	897.244	-395.206	847.885	782.180	-395.282	802.449	749.785	-382.309	736.985	892.502	-385.447	741.720	775.252	-394.433	864.368	838.635	-752.531	863.951	700.512	-743.301	749.168	838.386	-772.577	751.991	704.352	-752.865	874.647	1093.530	-446.567	686.104	1127.172	-540.761	884.987	1095.350	-704.333	694.897	1126.016	-623.336	739.278	1609.392	-584.654	781.150	1580.749	-419.712	805.813	1575.808	-760.758	878.164	1531.924	-577.517	804.937	1005.486	-459.447	813.866	1007.226	-695.636	799.875	1018.456	-489.934	817.902	1016.086	-659.227	690.501	1126.594	-582.049	879.817	1094.440	-575.450	809.401	1006.356	-577.541	785.159	1110.517	-578.749	776.458	564.760	-472.255	780.501	567.269	-671.539	741.313	117.532	-457.339	721.659	117.307	-686.968	741.313	0.000	-457.339	847.142	0.000	-382.262	886.275	0.000	-445.091	721.659	0.000	-686.968	821.135	0.000	-777.796	868.435	0.000	-721.193
201	4.00000	777.830	575.418	-409.630	790.853	490.912	-404.675	735.271	114.369	-409.188	646.576	71.557	-452.177	847.156	39.326	-382.251	886.271	73.361	-445.103	771.907	572.769	-732.851	795.887	455.984	-733.813	705.912	113.783	-731.816	630.313	73.847	-680.911	821.155	42.440	-777.836	868.461	70.704	-721.372	775.148	554.090	-534.906	747.394	120.701	-505.470	789.148	561.758	-610.286	737.311	120.767	-642.090	786.289	370.834	-401.471	715.829	491.475	-392.609	704.258	375.638	-386.325	708.430	476.673	-752.702	695.187	354.793	-753.730	850.114	897.229	-395.223	847.872	782.164	-395.306	802.554	749.813	-382.280	737.101	892.504	-385.446	741.800	775.224	-394.375	864.358	838.642	-752.566	864.001	700.469	-743.304	749.151	838.401	-772.509	752.054	704.325	-752.904	874.706	1093.547	-446.571	686.138	1127.112	-540.787	884.972	1095.360	-704.368	694.888	1125.985	-623.362	739.280	1609.392	-584.668	781.114	1580.733	-419.644	805.809	1575.738	-760.689	878.072	1531.895	-577.455	805.004	1005.480	-459.468	813.899	1007.214	-695.659	799.980	1018.393	-489.925	817.921	1016.083	-659.247	690.513	1126.549	-582.075	879.839	1094.453	-575.469	809.452	1006.347	-577.564	785.176	1110.501	-578.772	776.489	564.754	-472.268	780.528	567.263	-671.569	741.332	117.535	-457.329	721.611	117.275	-686.953	741.332	0.000	-457.329	847.156	0.000	-382.251	886.271	0.000	-445.103	721.611	0.000	-686.953	821.155	0.000	-777.836	868.461	0.000	-721.372
202	4.02000	777.847	575.378	-409.660	790.848	490.905	-404.678	735.277	114.391	-409.180	646.616	71.420	-452.254	847.152	39.337	-382.267	886.300	73.292	-445.131	771.929	572.734	-732.868	795.849	455.987	-733.843	705.917	113.755	-731.821	630.298	73.812	-680.953	821.146	42.402	-777.836	868.432	70.648	-721.365	775.128	554.081	-534.921	747.379	120.699	-505.477	789.240	561.855	-610.337	737.483	120.831	-642.059	786.311	370.794	-401.496	715.844	491.429	-392.636	704.297	375.662	-386.333	708.414	476.675	-752.677	695.323	354.752	-753.840	850.155	897.272	-395.293	847.914	782.162	-395.317	802.556	749.819	-382.327	737.135	892.497	-385.459	741.868	775.234	-394.413	864.371	838.633	-752.601	864.019	700.485	-743.378	749.190	838.417	-772.640	752.039	704.316	-752.885	874.755	1093.491	-446.598	686.179	1127.004	-540.768	885.606	1095.637	-704.472	695.028	1125.846	-623.349	739.306	1609.356	-584.608	781.049	1580.719	-419.623	805.810	1575.741	-760.657	878.010	1531.852	-577.414	805.257	1005.351	-459.607	814.377	1007.398	-695.787	800.177	1018.502	-490.026	818.325	1016.127	-659.393	690.603	1126.425	-582.059	880.181	1094.564	-575.535	809.817	1006.374	-577.697	785.392	1110.494	-578.797	776.488	564.729	-472.290	780.584	567.294	-671.603	741.328	117.545	-457.329	721.700	117.293	-686.940	741.328	0.000	-457.329	847.152	0.000	-382.267	886.300	0.000	-445.131	721.700	0.000	-686.940	821.146	0.000	-777.836	868.432	0.000	-721.365
203	4.04000	777.867	575.373	-409.628	790.872	490.891	-404.710	735.286	114.357	-409.163	646.636	71.411	-452.260	847.154	39.327	-382.235	886.294	73.299	-445.117	771.906	572.731	-732.886	795.845	456.010	-733.864	705.898	113.694	-731.851	630.301	73.771	-680.979	821.132	42.388	-777.812	868.419	70.650	-721.410	775.147	554.091	-534.941	747.347	120.676	-505.462	789.248	561.767	-610.260	737.416	120.838	-642.110	786.346	370.809	-401.521	715.844	491.442	-392.641	704.289	375.663	-386.389	708.364	476.680	-752.690	695.166	354.766	-753.719	850.221	897.223	-395.354	848.028	782.169	-395.361	802.616	749.814	-382.331	737.219	892.495	-385.417	741.909	775.259	-394.372	864.370	838.644	-752.664	863.979	700.510	-743.375	749.207	838.354	-772.622	752.072	704.353	-752.928	874.799	1093.497	-446.650	686.241	1127.021	-540.752	885.612	1095.642	-704.539	694.996	1125.875	-623.291	739.339	1609.366	-584.564	781.028	1580.698	-419.595	805.787	1575.757	-760.652	878.027	1531.838	-577.393	805.311	1005.360	-459.630	814.344	1007.414	-695.812	800.283	1018.498	-490.008	818.252	1016.147	-659.403	690.618	1126.448	-582.021	880.206	1094.569	-575.594	809.828	1006.387	-577.721	785.412	1110.509	-578.808	776.507	564.732	-472.284	780.577	567.249	-671.573	741.317	117.516	-457.312	721.657	117.266	-686.980	741.317	0.000	-457.312	847.154	0.000	-382.235	886.294	0.000	-445.117	721.657	0.000	-686.980	821.132	0.000	-777.812	868.419	0.000	-721.410
204	4.06000	777.865	575.360	-409.641	790.893	490.912	-404.649	735.270	114.351	-409.175	646.583	71.438	-452.213	847.161	39.347	-382.245	886.292	73.297	-445.140	771.896	572.728	-732.866	795.804	456.031	-733.875	705.863	113.711	-731.828	630.331	73.757	-680.972	821.144	42.399	-777.823	868.428	70.655	-721.399	775.130	554.041	-534.942	747.387	120.724	-505.486	789.238	561.761	-610.282	737.416	120.838	-642.124	786.331	370.803	-401.470	715.915	491.438	-392.649	704.324	375.682	-386.367	708.336	476.688	-752.682	695.118	354.771	-753.739	850.230	897.251	-395.268	848.033	782.127	-395.390	802.637	749.788	-382.334	737.252	892.527	-385.440	741.952	775.259	-394.377	864.347	838.600	-752.653	863.945	700.513	-743.396	749.183	838.428	-772.612	751.906	704.348	-752.855	874.905	1093.506	-446.653	686.285	1127.022	-540.711	885.614	1095.625	-704.532	695.010	1125.957	-623.167	739.335	1609.371	-584.583	781.031	1580.666	-419.604	805.786	1575.784	-760.631	877.982	1531.818	-577.396	805.380	1005.373	-459.596	814.317	1007.428	-695.783	800.393	1018.382	-490.059	818.317	1016.193	-659.452	690.647	1126.490	-581.939	880.260	1094.566	-575.592	809.848	1006.401	-577.690	785.453	1110.528	-578.766	776.497	564.701	-472.291	780.567	567.245	-671.574	741.328	117.538	-457.330	721.640	117.274	-686.976	741.328	0.000	-457.330	847.161	0.000	-382.245	886.292	0.000	-445.140	721.640	0.000	-686.976	821.144	0.000	-777.823	868.428	0.000	-721.399
205	4.08000	777.872	575.371	-409.625	790.947	490.945	-404.651	735.284	114.350	-409.182	646.569	71.522	-452.219	847.133	39.324	-382.242	886.271	73.352	-445.126	771.825	572.764	-732.858	795.814	456.015	-733.830	705.851	113.755	-731.849	630.284	73.823	-680.968	821.137	42.419	-777.819	868.424	70.694	-721.408	775.129	554.041	-534.932	747.352	120.723	-505.495	789.269	561.784	-610.254	737.382	120.799	-642.115	786.352	370.800	-401.533	715.859	491.404	-392.637	704.287	375.656	-386.364	708.330	476.636	-752.662	695.119	354.791	-753.711	850.298	897.250	-395.262	847.986	782.183	-395.367	802.648	749.788	-382.324	737.304	892.545	-385.444	741.984	775.249	-394.367	864.289	838.611	-752.683	863.886	700.520	-743.438	749.136	838.500	-772.621	751.909	704.324	-752.842	874.958	1093.513	-446.648	686.294	1127.081	-540.738	885.605	1095.629	-704.506	694.992	1126.054	-623.144	739.316	1609.390	-584.568	781.027	1580.673	-419.581	805.756	1575.831	-760.643	877.977	1531.808	-577.396	805.362	1005.406	-459.593	814.281	1007.462	-695.781	800.428	1018.358	-490.065	818.305	1016.247	-659.449	690.643	1126.568	-581.941	880.281	1094.571	-575.577	809.821	1006.434	-577.687	785.462	1110.569	-578.759	776.500	564.706	-472.278	780.547	567.274	-671.556	741.318	117.537	-457.338	721.617	117.277	-686.982	741.318	0.000	-457.338	847.133	0.000	-382.242	886.271	0.000	-445.126	721.617	0.000	-686.982	821.137	0.000	-777.819	868.424	0.000	-721.408
